<?xml version="1.0" encoding="UTF-8" standalone="no"?>
<!DOCTYPE svg PUBLIC "-//W3C//DTD SVG 1.1//EN"
 "http://www.w3.org/Graphics/SVG/1.1/DTD/svg11.dtd">
<!-- Generated by graphviz version 9.0.0 (0)
 -->
<!-- Pages: 1 -->
<svg width="184pt" height="183pt"
 viewBox="0.00 0.00 183.94 183.00" xmlns="http://www.w3.org/2000/svg" xmlns:xlink="http://www.w3.org/1999/xlink">
<g id="graph0" class="graph" transform="scale(1 1) rotate(0) translate(4 179)">
<polygon fill="white" stroke="none" points="-4,4 -4,-179 179.94,-179 179.94,4 -4,4"/>
<!-- x -->
<g id="node1" class="node">
<title>x</title>
<polygon fill="lightgray" stroke="black" points="23.69,-175 3.19,-175 3.19,-156.5 23.69,-156.5 23.69,-175"/>
<text text-anchor="middle" x="13.44" y="-162.45" font-family="Times,serif" font-size="9.00">x</text>
</g>
<!-- 1109 -->
<g id="node6" class="node">
<title>1109</title>
<ellipse fill="white" stroke="black" cx="13.44" cy="-107.06" rx="13.44" ry="13.44"/>
<text text-anchor="middle" x="13.44" y="-107.24" font-family="Times,serif" font-size="1.00">1109</text>
</g>
<!-- x&#45;&gt;1109 -->
<g id="edge5" class="edge">
<title>x&#45;&gt;1109</title>
<path fill="none" stroke="green" stroke-width="0.27" d="M13.44,-156.39C13.44,-149.73 13.44,-140.08 13.44,-131.16"/>
<polygon fill="green" stroke="green" stroke-width="0.27" points="16.94,-131.28 13.44,-121.28 9.94,-131.28 16.94,-131.28"/>
</g>
<!-- dx -->
<g id="node2" class="node">
<title>dx</title>
<polygon fill="lightgray" stroke="black" points="69.94,-116.31 44.94,-116.31 44.94,-97.81 69.94,-97.81 69.94,-116.31"/>
<text text-anchor="middle" x="57.44" y="-103.76" font-family="Times,serif" font-size="9.00">dx</text>
</g>
<!-- control -->
<g id="node5" class="node">
<title>control</title>
<ellipse fill="green" stroke="black" cx="80.44" cy="-28.81" rx="28.81" ry="28.81"/>
<text text-anchor="middle" x="80.44" y="-25.51" font-family="Times,serif" font-size="9.00">control</text>
</g>
<!-- dx&#45;&gt;control -->
<g id="edge3" class="edge">
<title>dx&#45;&gt;control</title>
<path fill="none" stroke="green" stroke-width="0.34" d="M60.07,-97.32C62.37,-89.69 65.87,-78.09 69.33,-66.65"/>
<polygon fill="green" stroke="green" stroke-width="0.34" points="72.63,-67.8 72.17,-57.22 65.93,-65.78 72.63,-67.8"/>
</g>
<!-- theta -->
<g id="node3" class="node">
<title>theta</title>
<polygon fill="lightgray" stroke="black" points="120.69,-116.31 88.19,-116.31 88.19,-97.81 120.69,-97.81 120.69,-116.31"/>
<text text-anchor="middle" x="104.44" y="-103.76" font-family="Times,serif" font-size="9.00">theta</text>
</g>
<!-- theta&#45;&gt;control -->
<g id="edge2" class="edge">
<title>theta&#45;&gt;control</title>
<path fill="none" stroke="green" stroke-width="0.53" d="M101.68,-97.32C99.31,-89.77 95.7,-78.33 92.14,-66.99"/>
<polygon fill="green" stroke="green" stroke-width="0.53" points="95.49,-65.98 89.15,-57.49 88.81,-68.08 95.49,-65.98"/>
</g>
<!-- dtheta -->
<g id="node4" class="node">
<title>dtheta</title>
<polygon fill="lightgray" stroke="black" points="175.94,-116.31 138.94,-116.31 138.94,-97.81 175.94,-97.81 175.94,-116.31"/>
<text text-anchor="middle" x="157.44" y="-103.76" font-family="Times,serif" font-size="9.00">dtheta</text>
</g>
<!-- dtheta&#45;&gt;control -->
<g id="edge1" class="edge">
<title>dtheta&#45;&gt;control</title>
<path fill="none" stroke="green" stroke-width="0.63" d="M148.6,-97.32C138.8,-87.61 122.5,-71.47 108.29,-57.4"/>
<polygon fill="green" stroke="green" stroke-width="0.63" points="110.91,-55.07 101.34,-50.52 105.99,-60.04 110.91,-55.07"/>
</g>
<!-- 1109&#45;&gt;control -->
<g id="edge4" class="edge">
<title>1109&#45;&gt;control</title>
<path fill="none" stroke="green" stroke-width="0.4" d="M21.92,-96.41C30.22,-86.96 43.28,-72.1 54.96,-58.81"/>
<polygon fill="green" stroke="green" stroke-width="0.4" points="57.26,-61.49 61.23,-51.67 52,-56.87 57.26,-61.49"/>
</g>
</g>
</svg>
