<?xml version="1.0" encoding="UTF-8" standalone="no"?>
<!DOCTYPE svg PUBLIC "-//W3C//DTD SVG 1.1//EN"
 "http://www.w3.org/Graphics/SVG/1.1/DTD/svg11.dtd">
<!-- Generated by graphviz version 9.0.0 (0)
 -->
<!-- Pages: 1 -->
<svg width="201pt" height="183pt"
 viewBox="0.00 0.00 200.75 183.00" xmlns="http://www.w3.org/2000/svg" xmlns:xlink="http://www.w3.org/1999/xlink">
<g id="graph0" class="graph" transform="scale(1 1) rotate(0) translate(4 179)">
<polygon fill="white" stroke="none" points="-4,4 -4,-179 196.75,-179 196.75,4 -4,4"/>
<!-- x -->
<g id="node1" class="node">
<title>x</title>
<polygon fill="lightgray" stroke="black" points="20.5,-175 0,-175 0,-156.5 20.5,-156.5 20.5,-175"/>
<text text-anchor="middle" x="10.25" y="-162.45" font-family="Times,serif" font-size="9.00">x</text>
</g>
<!-- 976 -->
<g id="node7" class="node">
<title>976</title>
<ellipse fill="white" stroke="black" cx="42.25" cy="-107.06" rx="12.9" ry="12.9"/>
<text text-anchor="middle" x="42.25" y="-107.24" font-family="Times,serif" font-size="1.00">976</text>
</g>
<!-- x&#45;&gt;976 -->
<g id="edge3" class="edge">
<title>x&#45;&gt;976</title>
<path fill="none" stroke="green" stroke-width="0.51" d="M14.97,-156.39C19.2,-148.9 25.56,-137.64 31.07,-127.87"/>
<polygon fill="green" stroke="green" stroke-width="0.51" points="33.95,-129.89 35.82,-119.46 27.85,-126.45 33.95,-129.89"/>
</g>
<!-- dx -->
<g id="node2" class="node">
<title>dx</title>
<polygon fill="lightgray" stroke="black" points="63.75,-175 38.75,-175 38.75,-156.5 63.75,-156.5 63.75,-175"/>
<text text-anchor="middle" x="51.25" y="-162.45" font-family="Times,serif" font-size="9.00">dx</text>
</g>
<!-- dx&#45;&gt;976 -->
<g id="edge7" class="edge">
<title>dx&#45;&gt;976</title>
<path fill="none" stroke="green" stroke-width="0.58" d="M49.92,-156.39C48.85,-149.63 47.29,-139.79 45.85,-130.75"/>
<polygon fill="green" stroke="green" stroke-width="0.58" points="49.31,-130.22 44.29,-120.89 42.4,-131.32 49.31,-130.22"/>
</g>
<!-- theta -->
<g id="node3" class="node">
<title>theta</title>
<polygon fill="lightgray" stroke="black" points="131.5,-175 99,-175 99,-156.5 131.5,-156.5 131.5,-175"/>
<text text-anchor="middle" x="115.25" y="-162.45" font-family="Times,serif" font-size="9.00">theta</text>
</g>
<!-- control -->
<g id="node5" class="node">
<title>control</title>
<ellipse fill="green" stroke="black" cx="103.25" cy="-28.81" rx="28.81" ry="28.81"/>
<text text-anchor="middle" x="103.25" y="-25.51" font-family="Times,serif" font-size="9.00">control</text>
</g>
<!-- theta&#45;&gt;control -->
<g id="edge1" class="edge">
<title>theta&#45;&gt;control</title>
<path fill="none" stroke="green" stroke-width="0.7" d="M111.91,-156.1C108.7,-147.29 104.07,-133.18 102.25,-120.5 99.81,-103.53 99.63,-84.59 100.22,-68.43"/>
<polygon fill="green" stroke="green" stroke-width="0.7" points="103.7,-68.96 100.69,-58.8 96.71,-68.62 103.7,-68.96"/>
</g>
<!-- 1014 -->
<g id="node6" class="node">
<title>1014</title>
<ellipse fill="white" stroke="black" cx="124.25" cy="-107.06" rx="13.44" ry="13.44"/>
<text text-anchor="middle" x="124.25" y="-107.24" font-family="Times,serif" font-size="1.00">1014</text>
</g>
<!-- theta&#45;&gt;1014 -->
<g id="edge5" class="edge">
<title>theta&#45;&gt;1014</title>
<path fill="none" stroke="green" stroke-width="0.27" d="M116.58,-156.39C117.66,-149.57 119.24,-139.61 120.69,-130.51"/>
<polygon fill="green" stroke="green" stroke-width="0.27" points="124.11,-131.28 122.22,-120.85 117.2,-130.18 124.11,-131.28"/>
</g>
<!-- dtheta -->
<g id="node4" class="node">
<title>dtheta</title>
<polygon fill="lightgray" stroke="black" points="192.75,-116.31 155.75,-116.31 155.75,-97.81 192.75,-97.81 192.75,-116.31"/>
<text text-anchor="middle" x="174.25" y="-103.76" font-family="Times,serif" font-size="9.00">dtheta</text>
</g>
<!-- dtheta&#45;&gt;control -->
<g id="edge2" class="edge">
<title>dtheta&#45;&gt;control</title>
<path fill="none" stroke="green" stroke-width="0.63" d="M166.11,-97.32C157.28,-87.83 142.72,-72.2 129.83,-58.36"/>
<polygon fill="green" stroke="green" stroke-width="0.63" points="132.52,-56.12 123.15,-51.18 127.4,-60.89 132.52,-56.12"/>
</g>
<!-- 1014&#45;&gt;control -->
<g id="edge6" class="edge">
<title>1014&#45;&gt;control</title>
<path fill="none" stroke="green" stroke-width="0.46" d="M120.88,-93.81C118.87,-86.52 116.2,-76.83 113.55,-67.2"/>
<polygon fill="green" stroke="green" stroke-width="0.46" points="116.92,-66.28 110.89,-57.57 110.17,-68.14 116.92,-66.28"/>
</g>
<!-- 976&#45;&gt;control -->
<g id="edge4" class="edge">
<title>976&#45;&gt;control</title>
<path fill="none" stroke="green" stroke-width="0.44" d="M49.98,-96.41C57.29,-87.27 68.65,-73.06 79.01,-60.11"/>
<polygon fill="green" stroke="green" stroke-width="0.44" points="81.7,-62.36 85.21,-52.36 76.23,-57.99 81.7,-62.36"/>
</g>
</g>
</svg>
